<svg id="egPhQod9jDJ1" xmlns="http://www.w3.org/2000/svg" xmlns:xlink="http://www.w3.org/1999/xlink" viewBox="0 0 3000 1333.3333" shape-rendering="geometricPrecision" text-rendering="geometricPrecision"><g transform="matrix(1.33333 0 0-1.33333 1274.752616 1215.057897)"><g transform="matrix(.1 0 0 0.1 0 0)"><path id="egPhQod9jDJ4" d="M-9560.66852,2130.36c2553.3006,0,9715.522555,0,10222.32452,80.27C936.126109,2240,1192.41,2369.5,1455.64,2453.21c159.6,50.75,345.6,96.78,393.64,271.73c18.15,66.1-27.51,184.21,16.93,237.48c46.4,55.62,165.84,32.76,230.83,35.85c230.32,10.97,712.08,11.33,845.2,201.08c92.26,131.49,99.69,349.33,86.68,503.83-8.97,106.51-52.99,394.19-147.68,460.49-82.35,57.65-188.32-10.45-279.47-36.11-140.88-39.67-278.23-35.59-421.9-49.6-187.54-18.3-315.7-4.05-387.44-182.75-188.98,177.04-909.575,88.6-1074.895-73.75c299.195-106.89,689.545-29.64,998.505-20.78c275.46,7.9,121.69-178.63,122.08-376.94.79-402.22,794.55-250.48,1064.86-271.16c189.5-14.5,356.28,84.96,554.92,74.64c190.23-9.89,369.8,1.1,544.01,88.1c195.52,97.66,349.87,223.57,486.33,391.06c105.58,129.6,185.32,266.72,348.76,334.5c107.74,44.68,381.67,102.45,288.8-78.75-67.07-130.85-335.09-200.26-451.19-126.97-1.33,17.55,693.18,87.07,560.82,349.95-115.65,229.7-483.9,125.21-605.01,378.25c169.19,3,509.36-230.74,646.25-327.54c107.52-76.03,264.79-180.52,372.62-269.76-98.84-74.6-282.4,18.9-358.55,93.24-115.39,112.63,34.53,205.21-13.78,356.52-69.89,218.92-399.93,236.36-573.17,323.12-117.65,58.91-163.89,276.41-314.98,258.92c282.45,9.23,293.96-243.21,546.13-296.04c257.39-53.92,8.24,102.59-32.95,192.18-35.5,77.22,68.84,241.88-101.5,263.5-65.34,8.3-158.6-45.26-143.46-117.13c10.16-48.26,121.86-57.63,142.97-105.37-190,45-384.39,218.39-574.17,207.39-143.15-8.3-130.83-72.39-293.11-243.63-132.45,55.2-680.17,268.92-781.62,350.99-35.62-43.32-52.53-48.63-67.86-99.53c188.7-57.87,356.59-144.97,539.44-221.04c202.32-84.18,245.01-77.42,94.85-254.23-126.65-149.13-295.54-355.67-458.11-466.04-73.66-50.01-276.62-61.95-252.7-175.88c144.78-45.35,326.68,59.52,453.44-42.4c145.81,315.11,397.56,585.1,636.37,829.18c126.92,129.73,393.5,195.09,273.65-65.6c17.69,2.92,30.54,6.13,41.22,8.68c38.29,9.12,73.07-24.78,64.81-63.27-8.69-40.48-13.31-71.87-31.7-117.01c18.54,4.83,41.3.99,63.62-2.05c24.8-3.38,42.28-25.47,40.51-50.43-6.58-92.94,58.41-47.84,87.46-122.59c47.53-122.29-21.61-96.22-49.88-208.57-12.67-50.36,23.87-93.77,15.54-145.28-23.92-148.02-183.49-291.85-306.89-369.81-164.86-104.16-364.05-223.11-542.72-293.66-139.29-55-309.79-135.74-274.19-321.75c32-167.21,256.29-142.46,408.02-142.12c454.34,1.01,907.08,29.26,1360.92,28.72c686.76-.82,2369.77,57.8,2526.55,57.57c56.72-.09,283.97-32.14,331.6,2.94c58.15,42.83,38.16,49.99,23.47,110.73-42.77,176.74-294.69,232.04-439.02,259.3-260.85,49.26-1113.45,221.85-1274.18,218.46-384.41-8.12-1625.49,11.3-1930.23-73.52C4370,3425,4058.76,3143.23,4211.76,3098.97c604.2,0,2098.24,16.03,2520.37,15.41c163.22-55.39,107.56-254.96,27.66-358.05-286.46-369.6-1095.22-261.79-1471.01-140.43-277.21,89.53-388.22,116.26-643.78-20.9-102.8-55.18-262.91-304.05-175-355-187.49-38.63-457.24-148.48-424.76-376.04c197.83-10.26,2100.63-494.35,2281.23-476.9c252.29,24.38,575.43,158.24,932.91,361.83.58,83.81,26.53,116.27,16.56,199.22-184.41-191.56-769.51-412.12-1007.01-374.03-345.98,55.49-1263.57,259.52-1712.35,370.47-90.74,22.43-102.62,146.82-17.67,185.81c186.95,85.8,351.55,186.14,478.45,206.16c206.49,32.59,1994.99-323.83,2157.87-330.87-154.93,217.92-2095.8,490.46-2251.38,445.96C4810,2395,4629.64,2346.46,4525,2280c44.07,190.3,187.61,297.28,370.08,330.39c204.46,37.11,328.25-45.04,525.08-95.22c345.54-88.11,882.17-130.69,1207.67,53.51c78.42,44.39,164.37,103.93,206.13,185.08c57.19,111.09,86.04,241.24,53.56,373.98c180.47,9.84,1247.36,12.41,1279.93,57.6c155.39,215.68,1465.39,3344.67,1510.92,3653.95-238.85-49.44-1668.17-404.24-1897.84-472.97-153.05-45.8-256.22-54.74-313.68-186.73-89.52-205.62-917.49-2219.82-910.2-2447.64c350.88-102.52,1452.97-143.85,1632.25-453.52c126.74-218.93,235.5-275.26,1041.87-277.94c176.69-.6,75.36,130.51,18.63,297.68-95,280-211.97,1164.55-155,1310c207.85-51.03,944.1-137.77,1155,45c163.6,141.77-304.95,185.86-420,185-181.11-1.35-730-10-715-100c5-160,1074.4-93.35,1210-80c35-115-40-255-80-450c2.6,16.57,160.1,219.51,325,105c152.1-105.62-80.9-584.37-155-690-146.2-208.53-180.5,75.49-165,300c20,290,257.8,436.85,250,230-4.4-117.99-65-380-235-565-98.8-107.51-113.9-295.26-135-405-25-130-90.7-148.27-230-180-85.49-19.48-336.06-45.11-410,15-130.56,106.17,614.4,75.53,690.6,71.83c192.2-9.35,2314.386952-16.53,2759.386952-21.53" fill="none" stroke="#939898" stroke-width="50" stroke-linecap="round" stroke-linejoin="round" stroke-miterlimit="10" stroke-dashoffset="93770.46968" stroke-dasharray="93770.47"/></g></g></svg>