<svg id="eOnSgRyFGdZ1" xmlns="http://www.w3.org/2000/svg" xmlns:xlink="http://www.w3.org/1999/xlink" viewBox="0 0 640 290" shape-rendering="geometricPrecision" text-rendering="geometricPrecision"><g transform="matrix(.533822 0 0-.530722-1.359965 348.758069)"><g transform="matrix(.1 0 0 0.1-.000042-.000006)"><path id="eOnSgRyFGdZ4" d="M25.4766,1900.920153c163.488372,142.635532,429.004271,195.040506,634.332419,260.295275c260.429709,82.78576,529.213094,149.337728,791.678874,228.025091c159.136643,47.704977,344.59664,90.973156,392.497169,255.426077c18.097306,62.13397-27.430132,173.157317,16.880848,223.231093c46.26529,52.282775,165.358527,30.794385,230.159845,33.698984c229.651326,10.311795,710.012661,10.650195,842.746182,189.015109c91.992147,123.600541,99.400576,328.370042,86.428347,473.599973-8.943958,100.119352-52.836157,370.538422-147.25125,432.860392-82.110918,54.190974-187.773262-9.822995-278.658632-33.943384-140.470992-37.289782-277.422232-33.454584-420.675123-46.623978-186.995526-17.201992-314.783447-3.806998-386.315169-171.784918-188.431346,166.41752-906.934286,83.28396-1071.774322-69.324967c298.326365-100.476552,687.543085-27.861587,995.6061-19.533191c274.660274,7.425996,121.336705-167.912119,121.725572-354.32343.787706-378.086619,792.243231-235.451087,1061.768456-254.890278c188.949836-13.629993,355.245634,79.862362,553.308934,70.161566c189.677717-9.296596,368.726382,1.034,542.430608,82.81396c194.952359,91.800356,348.854243,210.155699,484.918067,367.596224c105.273476,121.823942,184.781972,250.71668,347.747466,314.429849c107.427205,41.99918,380.56192,96.302954,287.961544-74.024964-66.87528-122.998941-334.117153-188.24431-449.880087-119.351743-1.326139,16.496992,691.167532,81.845761,559.191805,328.952842-115.31424,215.917896-482.495122,117.697344-603.253511,355.554829c168.698801,2.819999,507.881206-216.895496,644.373781-307.887452c107.207844-71.468166,264.021251-169.688719,371.538195-253.574278-98.553044-70.123966-281.580125,17.765991-357.509043,87.645558-115.054995,105.872149,34.429751,192.897307-13.739993,335.128639-69.687093,205.784701-398.768907,222.178293-571.50595,303.732654-117.308434,55.375373-163.414188,259.825275-314.065537,243.384683c281.62998,8.676196,293.106564-228.61729,544.544454-278.277466c256.642735-50.684776,8.216077,96.434554-32.854338,180.649113-35.396935,72.586765,68.640141,227.367091-101.205321,247.689881-65.150302,7.801996-158.139546-42.54438-143.043501-110.102147c10.130503-45.364378,121.506211-54.172174,142.554924-99.047752-189.448384,42.29998-383.274024,205.286501-572.503047,194.946506-142.734401-7.801996-130.450169-68.046567-292.259031-229.01209-132.065466,51.887975-678.195303,252.784679-779.35077,329.930442-35.516587-40.72078-52.377493-45.712178-67.662986-93.558155c188.152159-54.397774,355.554734-136.271735,537.873876-207.7775c201.732616-79.129162,244.298677-72.774765,94.574628-238.976085-126.282305-140.182133-294.681976-334.32964-456.779997-438.07739-73.446147-47.009377-275.816906-58.232972-251.966351-165.327121c144.359669-42.62898,325.73157,55.948773,452.123555-39.855981c145.386679,296.203258,396.405788,549.993736,634.522465,779.428826c126.551521,121.946141,392.357575,183.384512,272.855528-61.66397c17.638642,2.744799,30.451335,5.762197,41.100328,8.159196c38.178835,8.572796,72.85786-23.293189,64.621841-59.473771-8.664771-38.051182-13.271358-67.557768-31.607967-109.989347c18.486174,4.540198,41.180096.9306,63.435296-1.926999c24.728-3.177198,42.157251-23.941789,40.39239-47.404177-6.560897-87.363558,58.240422-44.969578,87.206083-115.234545c47.392009-114.952545-21.547261-90.446757-49.735186-196.055706-12.633216-47.338377,23.8007-88.143758,15.494884-136.563134-23.850554-139.138733-182.957284-274.338868-305.999025-347.621233-164.381372-97.910353-362.993075-209.723299-541.144354-276.040268-138.885608-51.699975-308.890605-127.595539-273.393961-302.444855c31.907096-157.177325,255.545929-133.912336,406.83542-133.592736c453.020942.9494,904.446529,27.504387,1356.968923,26.996787c684.766171-.7708,2362.889989,54.331974,2519.214819,54.115774c56.555328-.0846,283.145567-30.211585,330.637286,2.763599c57.981177,40.260181,38.049212,46.990577,23.401861,104.08615-42.645828,166.13552-293.834444,218.117495-437.74542,243.741883-260.09269,46.304378-1110.217387,208.5389-1270.48075,205.352301-383.293966-7.632796-1620.770812,10.621995-1924.626079-69.108767-114.755866-99.216952-425.092262-364.080625-272.536457-405.685005c602.445862,0,2092.148306,15.068193,2513.052761,14.485393c162.746133-52.066575,107.247728-239.662285,27.579696-336.566838-285.628338-347.423833-1092.040314-246.082482-1466.739305-132.004137-276.405193,84.15816-387.092904,109.284348-641.910952-19.645991-102.501547-51.869175-262.146709-285.806863-174.491933-333.69984-186.945672-36.312183-455.912523-139.571133-423.52682-353.47743c197.255652-9.644395,2094.531367-464.688777,2274.607042-448.285785c251.557542,22.917189,573.759389,148.745529,930.201538,340.120037.578316,78.781362,26.452977,109.293748,16.511922,187.26671-183.874614-180.066314-767.275928-387.392614-1004.086408-351.588031-344.975537,52.160575-1259.901553,243.948683-1707.378637,348.241633-90.47656,21.08419-102.32207,138.010734-17.6187,174.661316c186.407239,80.651961,350.529366,174.971516,477.060945,193.790307c205.89051,30.634585,1989.198065-304.400054,2151.605186-311.017651-154.480201,204.844702-2089.71539,461.032179-2244.843704,419.202199-113.519466-53.213374-293.355838-98.840953-397.692043-161.313323c43.942054,178.881914,187.065323,279.443066,369.005569,310.566451c203.866404,34.883383,327.297011-42.33758,523.555567-89.506757c344.536814-82.82336,879.608849-122.848541,1204.163844,50.299376c78.192328,41.72658,163.892794,97.694153,205.531555,173.975116c57.023964,104.42455,85.790205,226.765491,53.404502,351.541031c179.946052,9.249596,1243.738615,11.665394,1276.214056,54.143974c154.938866,202.739103,1461.135621,3143.988291,1506.533437,3434.711351-238.156561-46.473578-1663.326902-379.985418-1892.330115-444.591587-152.605659-43.051979-255.476132-51.455575-312.769312-175.526116-89.260102-193.282707-914.826306-2086.629798-907.557471-2300.780496c349.861311-96.368754,1448.751679-135.218935,1627.511187-426.308595c126.372043-205.794101,234.816287-258.744276,1038.845201-261.263475c176.177027-.564,75.141212,122.679341,18.575913,279.819066-94.724192,263.199874-211.3546,1094.676475-154.549998,1231.399409c207.246562-47.968177,941.359051-129.503738,1151.646758,42.29998c163.12503,133.263736-304.064657,174.708316-418.780639,173.899917-180.584194-1.268999-727.880635-9.399995-712.924183-93.999955c4.985484-150.399928,1071.280759-87.748958,1206.48708-75.199964c34.898387-108.099948-39.88387-239.699885-79.767741-422.999797c2.592452,15.575793,159.635191,206.339301,324.056447,98.699953c151.658417-99.282752-80.665128-549.307536-154.549998-648.599689-145.775546-196.018106-179.975965,70.960566-164.520965,281.999865c19.941935,272.599869,257.051545,410.638803,249.27419,216.199896-4.387226-110.910547-64.811289-357.199829-234.317739-531.099745-98.51316-101.059351-113.569321-277.544267-134.608063-380.699817-24.927419-122.199941-90.436676-139.373733-229.332255-169.199919-85.241802-18.311191-335.084337-42.40338-408.809672,14.099993-130.180953,99.799752,612.616249,70.998166,688.595022,67.520168c191.641997-8.788996,1420.264625-1.720199,1863.972683-6.420197" transform="translate(0-110.128259)" fill="none" stroke="#efefef" stroke-width="50" stroke-linecap="round" stroke-linejoin="round" stroke-miterlimit="10" stroke-dashoffset="81770.45" stroke-dasharray="81770.454897"/></g></g></svg>